<svg width="24.000000" height="24.000000" viewBox="0 0 24 24" fill="none" xmlns="http://www.w3.org/2000/svg" xmlns:xlink="http://www.w3.org/1999/xlink">
	<desc>
			Created with Pixso.
	</desc>
	<defs>
		<clipPath id="clip1_58250">
			<rect id="close 1" width="24.000000" height="24.000000" fill="white" fill-opacity="0"/>
		</clipPath>
	</defs>
	<rect id="close 1" width="24.000000" height="24.000000" fill="#FFFFFF" fill-opacity="0"/>
	<g clip-path="url(#clip1_58250)">
		<path id="Vector" d="M1.24 24C0.92 24 0.6 23.87 0.36 23.63C-0.12 23.15 -0.12 22.37 0.36 21.89L21.9 0.36C22.38 -0.13 23.16 -0.13 23.64 0.36C24.12 0.84 24.12 1.62 23.64 2.1L2.11 23.63C1.87 23.87 1.55 24 1.24 24Z" fill="#FFFFFF" fill-opacity="1.000000" fill-rule="nonzero"/>
		<path id="Vector" d="M22.77 24C22.45 24 22.14 23.87 21.9 23.63L0.36 2.1C-0.12 1.62 -0.12 0.84 0.36 0.36C0.85 -0.13 1.63 -0.13 2.11 0.36L23.64 21.89C24.12 22.37 24.12 23.15 23.64 23.63C23.4 23.87 23.08 24 22.77 24Z" fill="#FFFFFF" fill-opacity="1.000000" fill-rule="nonzero"/>
	</g>
</svg>
